<svg width="22" height="22" viewBox="0 0 22 22" fill="none" xmlns="http://www.w3.org/2000/svg">
<path fill-rule="evenodd" clip-rule="evenodd" d="M9 3.00115C7.4087 3.00115 5.88258 3.63329 4.75736 4.75851C3.63214 5.88373 3 7.40985 3 9.00115C3 10.5924 3.63214 12.1186 4.75736 13.2438C5.88258 14.369 7.4087 15.0012 9 15.0012C10.5913 15.0012 12.1174 14.369 13.2426 13.2438C14.3679 12.1186 15 10.5924 15 9.00115C15 7.40985 14.3679 5.88373 13.2426 4.75851C12.1174 3.63329 10.5913 3.00115 9 3.00115ZM1.70192e-07 9.00115C-0.000180585 7.58471 0.333964 6.18822 0.975257 4.92526C1.61655 3.66231 2.54688 2.56855 3.69059 1.73294C4.8343 0.897329 6.15909 0.343468 7.55722 0.116399C8.95534 -0.11067 10.3873 -0.00453374 11.7367 0.426175C13.0861 0.856883 14.3147 1.6 15.3227 2.59509C16.3308 3.59018 17.0897 4.80915 17.5378 6.15285C17.9859 7.49655 18.1105 8.92704 17.9015 10.328C17.6925 11.7289 17.1558 13.0607 16.335 14.2152L21.0183 18.8984C21.2915 19.1813 21.4427 19.5602 21.4393 19.9535C21.4359 20.3468 21.2781 20.723 21 21.0012C20.7219 21.2793 20.3457 21.437 19.9524 21.4404C19.5591 21.4439 19.1802 21.2927 18.8973 21.0194L14.2155 16.3377C12.869 17.2951 11.285 17.8634 9.63701 17.9803C7.98901 18.0973 6.34061 17.7583 4.87245 17.0006C3.40429 16.2429 2.17303 15.0957 1.31359 13.6847C0.45414 12.2737 -0.000321076 10.6533 1.70192e-07 9.00115Z" fill="#56CCF2"/>
</svg>
